<svg width="16" height="16" viewBox="0 0 16 16" fill="none" xmlns="http://www.w3.org/2000/svg">
<path d="M14.5306 5.03032L6.5306 13.0303C6.46092 13.1002 6.37813 13.1557 6.28696 13.1936C6.1958 13.2314 6.09806 13.2509 5.99935 13.2509C5.90064 13.2509 5.8029 13.2314 5.71173 13.1936C5.62057 13.1557 5.53778 13.1002 5.4681 13.0303L1.9681 9.53032C1.89833 9.46056 1.84299 9.37774 1.80524 9.28658C1.76748 9.19543 1.74805 9.09774 1.74805 8.99907C1.74805 8.90041 1.76748 8.80272 1.80524 8.71156C1.84299 8.62041 1.89833 8.53759 1.9681 8.46782C2.03786 8.39806 2.12069 8.34272 2.21184 8.30496C2.30299 8.26721 2.40069 8.24777 2.49935 8.24777C2.59801 8.24777 2.69571 8.26721 2.78686 8.30496C2.87801 8.34272 2.96083 8.39806 3.0306 8.46782L5.99997 11.4372L13.4693 3.96907C13.6102 3.82818 13.8013 3.74902 14.0006 3.74902C14.1999 3.74902 14.391 3.82818 14.5318 3.96907C14.6727 4.10997 14.7519 4.30107 14.7519 4.50032C14.7519 4.69958 14.6727 4.89068 14.5318 5.03157L14.5306 5.03032Z" fill="#FF3ED9"/>
</svg>
